<svg width="300" height="339" viewBox="0 0 300 339" fill="none" xmlns="http://www.w3.org/2000/svg">
<g filter="url(#filter0_d_102_1299)">
<path d="M292.939 162.552C291.952 131.113 290.965 99.6748 291.811 68.3772C292.234 46.5253 292.798 18.7523 270.104 7.19196C249.666 -3.24056 223.872 0.706878 201.601 0.847858C152.972 1.2708 104.343 1.69367 55.7138 1.83465C33.0203 1.97563 12.3001 21.2899 12.8639 44.6926C14.4144 96.9962 3.56098 151.555 4.54765 204.705C5.11147 240.514 -5.17815 313.118 43.4509 323.692C49.9347 327.78 57.4053 330.177 64.7349 329.895C130.983 327.78 189.761 332.01 256.009 329.19C295.758 327.498 295.053 286.191 295.053 256.585C295.194 225.288 293.926 193.849 292.939 162.552Z" fill="#CDDBF9"/>
<path d="M60.7363 33.8373C60.1725 33.6963 59.7496 33.5554 59.1858 33.2734C50.5877 30.3128 30.7132 25.3785 29.3037 39.7585C29.0218 43.142 30.7132 46.8075 33.6732 48.4992C35.3647 49.4861 37.479 49.768 39.4523 50.05C46.2181 50.8959 53.2658 51.6008 59.8906 49.909C62.0049 49.3451 63.9783 48.6402 65.6697 47.2304C67.3611 45.8206 68.4888 43.8469 68.4888 41.7322C68.4888 39.4765 67.0792 37.5028 65.2468 36.093C63.9783 35.1062 62.4278 34.4012 60.7363 33.8373Z" fill="#2C2E3E"/>
<path d="M142.912 34.6832C142.208 34.6832 141.362 34.6832 140.657 34.6832C134.596 34.5423 128.394 34.2603 122.333 33.6964C117.4 33.2734 113.171 38.2077 113.171 42.8601C113.171 54.1385 133.891 55.8303 141.503 53.7156C143.758 53.1517 145.45 51.8828 146.577 50.1911C153.202 47.0895 152.074 34.9652 142.912 34.6832Z" fill="#2C2E3E"/>
<path d="M97.6662 53.5744C92.169 51.4597 84.1347 50.1909 78.4965 51.8826C73.5632 53.4334 70.3212 58.0858 71.026 63.3021C71.7308 67.6724 75.2546 71.9018 79.9061 72.3247H80.047C88.2223 74.0165 110.916 74.1575 105.419 59.9185C104.291 57.0989 101.331 54.9842 97.6662 53.5744Z" fill="#2C2E3E"/>
<path d="M69.7573 84.872C68.9115 84.4491 67.9249 84.0262 66.9382 83.7442C58.6219 81.0656 41.7075 82.3344 42.1303 94.4586C42.2713 98.547 45.5132 102.072 49.178 103.763C56.9305 107.147 75.9592 106.724 76.9459 95.0226C77.2278 92.344 75.9592 89.5244 73.9859 87.6916C72.8582 86.5638 71.3077 85.5769 69.7573 84.872Z" fill="#2C2E3E"/>
<path d="M138.543 86.2818L138.402 86.1409C131.777 81.3476 126.703 80.3607 118.527 81.2066C115.426 81.4885 112.889 82.7573 111.057 84.4491C108.097 86.1409 105.701 89.3834 105.419 92.485C104.15 103.34 115.145 104.468 123.179 106.019C129.522 107.147 140.093 106.16 143.617 99.8159C146.859 94.0357 143.194 89.8063 138.543 86.2818Z" fill="#2C2E3E"/>
<path d="M106.546 114.619C105.982 114.337 105.56 114.055 104.996 113.914C96.3975 110.107 77.3688 107.852 74.9726 120.822C74.2678 124.346 75.6773 128.153 78.4964 130.268C80.6107 131.818 83.2888 132.241 85.826 132.664C91.1822 133.369 96.6794 133.369 102.177 132.946C104.15 132.805 106.264 132.382 107.956 131.254C110.634 129.422 111.48 125.756 111.198 122.514C111.057 120.54 110.493 118.566 109.224 117.015C108.66 115.888 107.674 115.183 106.546 114.619Z" fill="#2C2E3E"/>
<path d="M177.023 107.993C176.741 107.993 176.459 107.993 176.177 107.993C168.707 108.557 157.994 108.698 156.726 117.58C155.316 127.589 168.002 130.55 176.459 129.986C180.829 129.704 185.48 127.166 186.467 122.937C186.608 122.655 186.608 122.232 186.608 121.95C187.454 115.465 186.185 107.852 177.023 107.993Z" fill="#2C2E3E"/>
<path d="M150.242 138.022C142.912 132.946 122.051 133.228 122.615 145.916C123.32 161.988 153.202 163.257 154.189 146.198C154.47 142.533 152.92 139.854 150.242 138.022Z" fill="#2C2E3E"/>
</g>
<defs>
<filter id="filter0_d_102_1299" x="0" y="0" width="299.064" height="338.196" filterUnits="userSpaceOnUse" color-interpolation-filters="sRGB">
<feFlood flood-opacity="0" result="BackgroundImageFix"/>
<feColorMatrix in="SourceAlpha" type="matrix" values="0 0 0 0 0 0 0 0 0 0 0 0 0 0 0 0 0 0 127 0" result="hardAlpha"/>
<feOffset dy="4"/>
<feGaussianBlur stdDeviation="2"/>
<feComposite in2="hardAlpha" operator="out"/>
<feColorMatrix type="matrix" values="0 0 0 0 0 0 0 0 0 0 0 0 0 0 0 0 0 0 0.25 0"/>
<feBlend mode="normal" in2="BackgroundImageFix" result="effect1_dropShadow_102_1299"/>
<feBlend mode="normal" in="SourceGraphic" in2="effect1_dropShadow_102_1299" result="shape"/>
</filter>
</defs>
</svg>
