<svg width="292" height="312" viewBox="0 0 292 312" fill="none" xmlns="http://www.w3.org/2000/svg">
<g filter="url(#filter0_d_102_1314)">
<path d="M275.492 48.4717C273.659 36.9114 261.819 26.6199 250.966 23.9412C182.321 6.88266 106.206 -10.3169 35.3065 7.58755C26.4264 9.84322 20.6473 15.9054 17.8282 23.0953C7.67956 36.0655 9.0891 55.0978 7.96147 70.7466C6.27002 92.7394 4.57857 114.732 4.29666 136.866C4.01475 172.675 6.27 208.484 11.2034 244.011C15.1501 272.771 30.655 292.79 61.2419 296.455C97.608 300.826 134.679 302.095 171.186 303.082C200.786 303.786 244.341 306.465 267.457 283.626C288.318 263.184 285.358 221.736 286.627 194.95C288.882 146.171 283.385 96.6869 275.492 48.4717Z" fill="#B1DBA4"/>
<path d="M150.483 131.882C150.764 129.626 150.06 126.947 148.65 124.974C148.227 124.269 147.663 123.846 147.1 123.564C146.959 123.423 146.818 123.423 146.677 123.282C146.536 123.282 146.536 123.282 146.395 123.141C146.113 123 145.972 123 145.69 123H145.549H145.408H145.267C145.267 123 145.267 123 145.126 123C143.999 123 142.871 123.282 142.025 124.128C140.334 125.961 138.924 127.934 138.22 130.472C137.938 131.741 137.656 133.01 137.656 134.278C137.656 135.124 137.797 135.829 137.938 136.675C138.079 137.803 138.783 138.79 139.629 139.636C139.77 139.777 139.911 139.918 140.193 140.059C140.616 140.764 141.321 141.327 142.025 141.468C143.153 141.75 144.281 141.327 145.126 140.623C145.831 140.059 146.536 139.213 147.1 138.367C149.214 136.816 150.201 134.419 150.483 131.882Z" fill="#2C2E3E"/>
<path d="M131.877 170.792C131.877 170.651 131.877 170.369 131.877 170.228C131.877 170.087 131.877 169.805 131.877 169.665C131.877 168.819 131.736 167.973 131.454 167.268C131.031 166.14 130.467 165.153 129.339 164.589C128.353 164.025 126.943 163.743 125.816 164.166C124.688 164.589 123.701 165.153 123.137 166.281C122.996 166.704 122.856 166.986 122.715 167.409C122.574 167.973 122.574 168.537 122.574 169.101C122.715 170.087 122.715 171.074 122.715 172.202C122.574 172.484 122.574 172.766 122.433 173.048C122.292 173.894 122.01 174.74 122.01 175.586C121.869 176.714 121.587 177.982 121.587 179.251C121.587 181.507 123.278 183.34 125.534 183.763C126.943 183.903 128.353 183.481 129.339 182.494C130.185 181.93 130.749 181.225 131.031 180.238C131.736 178.405 132.158 176.291 132.158 174.317C132.158 172.907 132.018 171.92 131.877 170.792Z" fill="#2C2E3E"/>
<path d="M105.8 150.35C105.8 149.786 105.8 149.363 105.659 148.799C105.659 147.531 105.236 146.403 104.25 145.557C103.404 144.711 102.135 144.147 101.008 144.147C99.7392 144.147 98.6116 144.57 97.7659 145.557C97.4839 145.839 97.343 146.121 97.0611 146.544C96.7792 146.967 96.6382 147.39 96.4973 147.953C96.2154 149.786 95.7925 151.76 95.3697 153.593C95.3697 153.593 95.3697 153.734 95.2287 153.734C95.0877 154.439 94.9468 155.143 94.9468 155.848C94.9468 156.553 95.0878 157.117 95.3697 157.681C95.5106 158.245 95.9335 158.809 96.3563 159.232L97.343 159.937C97.9068 160.219 98.4706 160.501 99.0344 160.501C99.4573 160.642 99.8802 160.642 100.303 160.501C100.867 160.501 101.431 160.219 101.994 159.937C102.981 159.373 103.968 158.386 104.109 157.117C104.25 156.271 104.391 155.425 104.673 154.58C104.814 154.439 104.955 154.298 104.955 154.016C104.955 153.875 105.095 153.734 105.095 153.734C105.236 153.311 105.377 153.029 105.518 152.606C105.518 152.324 105.659 152.042 105.659 151.76C105.8 151.196 105.8 150.773 105.8 150.35Z" fill="#2C2E3E"/>
<path d="M93.2553 205.473C92.9733 204.769 92.6914 204.205 92.2686 203.641C92.2686 203.5 92.2685 203.5 92.1276 203.359C91.5638 202.654 91 201.949 90.1543 201.667C89.3085 201.385 88.3219 201.244 87.4761 201.526C86.4895 201.808 85.3618 202.513 84.9389 203.5C84.9389 203.641 84.798 203.782 84.798 203.782C84.2342 204.346 83.8113 204.91 83.2475 205.614C83.1066 205.896 82.8247 206.178 82.6837 206.601C82.2609 207.588 81.9789 208.152 81.838 209.28C81.838 209.844 81.697 210.267 81.697 210.831C81.697 211.395 81.838 211.959 81.838 212.382C81.9789 213.227 82.6837 214.073 83.3885 214.637V214.778C83.5294 215.201 83.6704 215.483 83.8113 215.906C84.0932 216.188 84.2342 216.47 84.5161 216.893C84.798 217.175 85.0799 217.316 85.5028 217.598C86.0666 217.88 86.6304 218.162 87.1942 218.162C87.6171 218.303 88.0399 218.303 88.4628 218.162C88.8856 218.162 89.3085 218.021 89.5904 217.88C90.5771 217.457 91.2819 216.893 91.8457 215.906C93.96 212.804 94.3829 208.857 93.2553 205.473Z" fill="#2C2E3E"/>
<path d="M114.257 187.287C113.976 186.018 113.412 184.749 112.707 183.621C112.284 182.917 111.72 182.494 111.015 182.071C110.311 181.789 109.465 181.648 108.619 181.93C107.069 182.494 105.941 183.762 105.941 185.454C105.941 186.018 105.941 186.441 105.941 187.005C105.8 187.992 105.659 188.979 105.518 189.966C105.377 190.811 105.236 191.798 105.236 192.785C105.236 194.054 105.941 195.041 106.646 196.028C107.21 196.874 107.914 197.438 108.901 197.579C109.747 197.72 110.875 197.438 111.579 196.733C111.72 196.451 112.002 196.31 112.143 196.028C112.425 195.605 112.848 195.323 112.989 194.9C113.271 194.336 113.412 193.772 113.412 193.208C113.553 193.067 113.553 193.067 113.553 192.926C113.976 192.08 114.257 191.234 114.398 190.248C114.539 189.12 114.539 188.274 114.257 187.287Z" fill="#2C2E3E"/>
<path d="M120.318 224.929C120.318 222.673 119.755 220.558 118.768 218.585C118.627 218.303 118.345 218.021 118.204 217.739C117.922 217.316 117.499 217.034 116.936 216.893C116.231 216.611 115.244 216.47 114.398 216.752C112.707 217.316 111.579 218.726 111.579 220.558C111.438 222.25 111.297 223.942 111.156 225.775C111.156 226.62 111.015 227.466 111.015 228.312C111.015 228.735 111.015 229.158 110.875 229.44C110.875 230.286 111.015 230.991 111.156 231.696C111.579 233.388 113.412 234.797 115.244 234.797C117.076 234.656 118.768 233.528 119.332 231.696C119.473 231.132 119.614 230.427 119.614 229.722C120.177 228.312 120.318 226.62 120.318 224.929Z" fill="#2C2E3E"/>
<path d="M78.737 182.353C78.8779 182.071 79.0189 181.789 79.0189 181.648V181.507C79.1598 181.084 79.1599 180.802 79.1599 180.379C79.1599 179.392 79.0189 178.405 79.0189 177.418C78.8779 176.29 78.596 175.163 77.7503 174.317C77.6094 174.176 77.4684 174.176 77.3274 174.035C77.3274 173.612 77.1865 173.189 77.1865 172.766C77.0455 172.625 77.0455 172.343 76.9046 172.202C76.7636 171.92 76.4817 171.638 76.1998 171.497C75.777 171.215 75.2131 170.933 74.6493 170.933C74.2265 170.933 73.8036 171.074 73.3808 171.356C72.817 171.638 72.2531 172.343 72.2531 172.907C72.2531 173.33 72.1122 173.753 72.1122 174.035C71.9712 174.176 71.8303 174.176 71.6893 174.317C71.4074 174.599 71.2665 174.881 70.9846 175.163C70.5617 175.868 70.4207 176.572 70.4207 177.277C70.4207 178.264 70.2798 179.251 70.2798 180.238C70.2798 180.943 70.5617 181.789 70.9846 182.494C70.9846 182.494 70.9846 182.635 71.1255 182.776C71.2665 183.058 71.4074 183.199 71.6893 183.481C72.535 184.326 73.8036 184.89 74.9313 184.749C76.0589 184.749 77.3274 184.326 78.1732 183.481C78.3141 183.199 78.596 183.058 78.737 182.776L78.8779 182.635C78.737 182.494 78.737 182.353 78.737 182.353Z" fill="#2C2E3E"/>
<path d="M56.3254 227.607C56.4663 226.761 56.6073 225.915 56.6073 225.07C56.6073 223.66 56.6073 222.25 56.6073 220.699C56.6073 219.571 56.0435 218.303 55.3387 217.598C54.6339 216.893 53.3654 216.188 52.2377 216.329C49.8415 216.47 47.8682 218.302 47.8682 220.699C47.8682 222.109 47.8682 223.519 47.8682 225.07C47.8682 225.493 47.8682 225.915 47.8682 226.338C47.7272 227.184 47.5863 228.03 47.5863 228.735C47.5863 228.876 47.5863 228.876 47.4454 229.017C47.3044 229.863 47.4453 230.568 47.5863 231.273C48.0091 232.823 49.5596 233.81 51.1101 233.669C51.8149 233.528 52.5197 233.246 52.9425 232.823C53.0835 232.542 53.2244 232.401 53.5063 232.119C53.6473 231.978 53.6473 231.696 53.7882 231.555C54.2111 231.273 54.6339 230.991 54.9158 230.568L55.9025 229.017C56.1844 228.594 56.3254 228.171 56.4663 227.607C56.3254 227.748 56.3254 227.748 56.3254 227.607C56.3254 227.748 56.3254 227.607 56.3254 227.607Z" fill="#2C2E3E"/>
<path d="M86.0666 242.974C86.0666 242.833 85.9256 242.692 85.9256 242.551C85.7846 241.705 85.5027 240.718 84.798 240.154C84.0932 239.59 83.3884 239.167 82.5427 239.026C81.697 238.886 80.7103 239.027 80.0055 239.449C79.1598 240.013 78.596 240.718 78.1731 241.846C77.7503 243.115 77.3274 244.384 77.1864 245.794C77.0455 246.78 76.9045 247.767 76.9045 248.613C76.9045 248.895 76.9045 249.318 76.9045 249.6C76.9045 250.164 77.0455 251.01 77.1864 251.433C77.6093 252.702 78.455 253.688 79.7236 253.97C80.8513 254.252 81.9789 253.97 82.9655 253.266C83.6703 252.702 84.0932 252.138 84.2341 251.292C84.2341 251.292 84.2341 251.292 84.2341 251.151V251.01C84.2341 250.728 84.3751 250.446 84.3751 250.305C84.516 249.741 84.5161 249.036 84.657 248.472V248.331C85.3618 247.626 85.6437 246.639 85.9256 245.653C86.0665 245.23 86.0666 244.948 86.2075 244.525C86.2075 244.243 86.2075 243.679 86.0666 242.974Z" fill="#2C2E3E"/>
<path d="M118.063 262.57C117.781 261.583 117.217 260.878 116.513 260.314C116.231 260.033 115.949 259.892 115.667 259.61C115.667 259.61 115.667 259.61 115.526 259.61C115.526 259.61 115.526 259.61 115.526 259.469C115.385 259.328 115.385 259.046 115.244 258.905C115.103 258.623 114.821 258.341 114.539 258.059C114.398 257.918 114.257 257.777 113.975 257.777C113.13 257.354 112.002 257.354 111.297 258.2C111.156 258.341 111.015 258.623 110.874 258.905C110.874 259.046 110.733 259.187 110.733 259.328C110.592 259.61 110.592 259.75 110.592 260.173C110.592 260.314 110.592 260.455 110.592 260.596C110.452 260.737 110.451 260.737 110.311 260.878C109.888 261.442 109.465 262.429 109.465 263.134C109.324 263.839 109.324 264.544 109.465 265.108C109.606 265.531 109.606 265.813 109.747 266.236C109.747 266.518 109.747 266.94 109.747 267.222C109.747 267.645 109.606 268.209 109.606 268.632C109.465 269.619 110.17 271.029 110.874 271.734C111.579 272.439 112.425 272.862 113.412 273.003C114.398 273.144 115.385 273.003 116.231 272.439C117.217 271.875 118.063 270.888 118.204 269.76C118.768 267.363 118.768 264.826 118.063 262.57Z" fill="#2C2E3E"/>
<path d="M113.976 257.636C113.976 257.636 113.835 257.636 113.976 257.636C113.552 257.495 113.552 257.495 113.976 257.636Z" fill="#2C2E3E"/>
<path d="M55.4797 261.865C55.0568 261.301 54.6339 260.737 53.9292 260.315H53.7882C53.6473 260.033 53.6473 259.61 53.5063 259.328C53.3654 258.623 52.8016 258.059 52.2378 257.636C51.6739 257.354 50.8282 257.213 50.1235 257.354C49.1368 257.636 48.573 258.341 48.291 259.328H48.1501C48.1501 259.61 48.0092 260.033 48.0092 260.315C48.0092 260.174 48.1501 260.033 48.1501 259.892C47.8682 260.597 47.7272 261.16 47.5863 261.865C47.5863 262.006 47.5863 262.147 47.5863 262.147C47.1634 262.711 46.8815 263.275 46.7406 263.98C46.1768 265.531 46.4587 267.505 47.3044 268.914C47.5863 269.196 47.7273 269.478 48.0092 269.76C48.432 270.183 48.8549 270.465 49.4187 270.606C49.7006 270.747 50.1234 270.888 50.5463 270.888C51.1101 271.029 51.6739 271.029 52.2378 270.747C52.9425 270.465 53.5063 270.183 54.0701 269.619C54.493 269.196 54.7749 268.773 54.9158 268.209C55.1978 267.645 55.3387 267.223 55.3387 266.518C55.3387 266.377 55.3387 266.236 55.3387 266.095C55.4796 265.954 55.4797 265.813 55.6206 265.672C55.9025 265.249 56.0435 264.685 56.0435 264.121C56.1844 263.698 56.1844 263.416 56.0435 262.993C55.9025 262.852 55.7616 262.288 55.4797 261.865Z" fill="#2C2E3E"/>
<path d="M91.1409 284.845C91.1409 284.422 91.1409 284.14 91.1409 283.717L91 281.462C91 280.757 90.7181 279.911 90.4362 279.206C90.4362 279.206 90.4362 279.065 90.2952 279.065C90.1542 278.783 90.0133 278.642 89.7314 278.36C89.0266 277.655 87.758 277.091 86.6304 277.091C85.5028 277.091 84.3751 277.514 83.5294 278.36C82.8246 279.206 82.2608 280.193 82.2608 281.462C82.2608 282.166 82.1199 283.012 82.1199 283.717C82.1199 284.14 82.1199 284.422 82.1199 284.845C82.1199 285.409 82.1199 285.832 82.2608 286.396C82.2608 286.678 82.4018 286.819 82.5428 287.101C82.5428 287.383 82.5428 287.806 82.5428 288.088C82.5428 288.793 82.6837 289.497 83.1066 290.202C83.1066 290.343 83.2475 290.343 83.3885 290.484C83.5294 290.766 83.6704 291.048 83.9523 291.189C84.6571 291.894 85.6437 292.317 86.6304 292.317C87.6171 292.317 88.6037 292.035 89.3085 291.189C89.5904 290.907 89.8723 290.484 90.1542 290.061C90.5771 289.356 90.718 288.651 90.718 287.947C90.718 287.665 90.718 287.242 90.718 286.96C90.859 286.678 91 286.537 91 286.255C91.1409 285.832 91.1409 285.409 91.1409 284.845Z" fill="#2C2E3E"/>
<path d="M42.9348 189.402C42.7938 189.402 42.7938 189.402 42.9348 189.402C42.9348 188.415 42.3709 187.569 41.3843 187.146C40.2566 186.723 38.8471 187.005 38.2833 188.133V188.274C37.0147 188.556 35.8871 189.402 35.4642 190.811C35.3233 191.375 35.1823 192.08 35.0414 192.644C33.6318 193.49 32.6451 194.9 32.7861 196.592C32.7861 197.86 33.3499 198.988 34.0547 199.975C34.0547 200.116 34.0547 200.257 34.0547 200.257C34.1957 201.244 34.3366 202.231 35.1823 202.795C35.7461 203.359 36.4509 203.641 37.2966 203.782C39.129 204.064 40.8204 202.936 41.3843 201.103C41.5252 200.257 41.6662 199.552 41.8071 198.706C41.8071 198.565 41.9481 198.565 41.9481 198.424C42.5119 197.296 42.6528 196.31 42.7938 195.041C42.9347 194.054 42.7938 192.926 42.6528 191.939C42.6528 191.234 42.7938 190.247 42.9348 189.402Z" fill="#2C2E3E"/>
<path d="M148.509 246.358C148.65 244.666 147.804 243.115 147.522 241.423C147.381 240.577 146.536 239.59 145.831 239.168C145.69 239.168 145.549 239.027 145.408 239.027C145.408 239.027 145.408 239.027 145.267 238.886L145.126 238.745C144.985 238.604 144.703 238.463 144.421 238.463C144.139 238.463 143.998 238.463 143.717 238.463C143.576 238.463 143.435 238.463 143.294 238.463C143.294 238.463 143.294 238.463 143.153 238.463C143.012 238.463 142.871 238.604 142.73 238.604C142.589 238.745 142.589 238.745 142.448 238.745C141.743 239.027 141.038 239.59 140.757 240.295C140.616 240.577 140.475 240.859 140.334 241.141C140.052 242.833 139.206 244.384 139.347 246.076C139.347 246.921 139.488 247.626 139.911 248.331V248.472C140.052 249.6 140.334 250.446 141.038 251.292C141.743 251.997 142.871 252.561 143.857 252.42C144.844 252.42 145.972 251.997 146.677 251.292C147.381 250.587 147.945 249.459 147.804 248.472C147.804 248.331 147.804 248.331 147.804 248.19C148.227 247.908 148.509 247.062 148.509 246.358Z" fill="#2C2E3E"/>
</g>
<defs>
<filter id="filter0_d_102_1314" x="0.273193" y="0" width="290.864" height="311.551" filterUnits="userSpaceOnUse" color-interpolation-filters="sRGB">
<feFlood flood-opacity="0" result="BackgroundImageFix"/>
<feColorMatrix in="SourceAlpha" type="matrix" values="0 0 0 0 0 0 0 0 0 0 0 0 0 0 0 0 0 0 127 0" result="hardAlpha"/>
<feOffset dy="4"/>
<feGaussianBlur stdDeviation="2"/>
<feComposite in2="hardAlpha" operator="out"/>
<feColorMatrix type="matrix" values="0 0 0 0 0 0 0 0 0 0 0 0 0 0 0 0 0 0 0.25 0"/>
<feBlend mode="normal" in2="BackgroundImageFix" result="effect1_dropShadow_102_1314"/>
<feBlend mode="normal" in="SourceGraphic" in2="effect1_dropShadow_102_1314" result="shape"/>
</filter>
</defs>
</svg>
