<svg width="90" height="90" viewBox="0 0 90 90" fill="none" xmlns="http://www.w3.org/2000/svg">
<path d="M33.75 67.5H56.25" stroke="#E8CCA7" stroke-width="6" stroke-linecap="round" stroke-linejoin="round"/>
<path d="M37.5 82.5H52.5" stroke="#E8CCA7" stroke-width="6" stroke-linecap="round" stroke-linejoin="round"/>
<path d="M56.5875 52.5C57.2625 48.825 59.025 45.975 61.875 43.125C63.6857 41.4581 65.1231 39.4268 66.0926 37.1647C67.0621 34.9025 67.5417 32.4608 67.5 30C67.5 24.0326 65.1295 18.3097 60.9099 14.0901C56.6903 9.87053 50.9674 7.5 45 7.5C39.0326 7.5 33.3097 9.87053 29.0901 14.0901C24.8705 18.3097 22.5 24.0326 22.5 30C22.5 33.75 23.3625 38.3625 28.125 43.125C30.8402 45.6077 32.6925 48.892 33.4125 52.5" stroke="#E8CCA7" stroke-width="6" stroke-linecap="round" stroke-linejoin="round"/>
</svg>
