<svg width="280" height="302" viewBox="0 0 280 302" fill="none" xmlns="http://www.w3.org/2000/svg">
<g filter="url(#filter0_d_102_1407)">
<path d="M274.852 144.476C274.288 125.444 272.878 106.552 270.341 87.661C268.086 69.8975 266.676 50.5833 256.669 35.2164C246.238 19.1447 228.478 10.8269 210.295 7.02046C192.817 3.49596 171.392 1.8042 150.671 0.817338C113.037 -1.0154 75.1203 -1.15638 40.5867 15.7612C15.4969 28.0265 10.1406 54.3897 7.7444 79.7661C2.95198 131.929 3.51579 183.95 7.03963 236.254C8.02631 251.339 13.6645 265.014 24.9408 275.164C37.4856 286.443 58.6287 287.148 74.8384 289.403C113.46 294.76 152.786 294.338 191.407 288.98C219.88 285.033 258.642 281.367 269.918 249.647C274.993 235.126 274.006 216.94 274.429 201.573C274.852 182.54 275.275 163.508 274.852 144.476Z" fill="#E8CCA7"/>
<path d="M46.9527 140.798C46.7859 135.46 46.6192 130.122 46.4524 124.95C46.2856 122.115 46.2856 119.279 46.1188 116.61C45.952 113.774 46.1188 110.604 45.2849 107.935C44.1174 103.765 37.6128 103.431 36.4453 107.935C35.2779 112.606 35.9451 117.944 35.7783 122.782C35.7783 127.619 35.6114 132.457 35.6114 137.295C35.4446 146.803 35.4446 156.311 35.2778 165.82C35.111 185.004 34.7775 204.187 34.2772 223.371C34.1104 228.709 33.9436 234.047 33.7768 239.218C33.6101 242.054 33.61 244.89 33.4432 247.559C33.2765 250.728 32.7762 254.065 34.9443 256.9C36.779 259.569 41.1153 260.904 43.4503 258.068C45.6185 255.566 45.952 253.23 46.1188 250.061C46.1188 247.559 46.2856 245.057 46.2856 242.554C46.4524 237.717 46.6192 232.879 46.6192 228.042C46.786 218.366 46.9528 208.691 47.1196 199.016C47.7867 179.499 47.6199 160.148 46.9527 140.798Z" fill="#2C2E3E"/>
<path d="M76.7049 274.408C76.7049 272.049 76.7049 269.691 76.7049 267.333C76.7049 262.784 76.7049 258.236 76.7049 253.688C76.7049 244.76 76.7049 235.831 76.5365 226.735C76.3681 208.71 76.3681 190.517 76.0312 172.492C76.0312 167.27 75.8628 162.048 75.8628 156.994C75.8628 151.604 75.8628 146.381 74.8523 140.991C74.5154 139.475 72.9996 137.959 71.4838 137.622C70.6417 137.453 69.968 137.453 69.1258 137.622H68.9575C67.4416 137.959 65.9258 139.475 65.589 140.991C63.9048 149.919 64.7468 159.521 64.5784 168.786C64.5784 177.714 64.5784 186.642 64.5784 195.739C64.5784 213.764 64.7469 231.957 64.7469 249.982C64.7469 255.204 64.7468 260.426 64.9153 265.48C64.9153 268.006 64.9153 270.533 64.9153 273.06C64.9153 276.092 64.5784 279.124 66.0942 281.988C68.1153 285.526 73.5048 285.526 75.5259 281.988C76.8733 279.461 76.7049 277.103 76.7049 274.408Z" fill="#2C2E3E"/>
<path d="M98.692 164.209C98.5257 144.256 97.8608 124.469 96.8633 104.516C96.5308 98.863 96.3646 93.376 96.0321 87.7227C95.8659 84.8961 95.6996 82.0695 95.5334 79.4091C95.3672 76.0836 95.5333 72.7581 92.8735 70.264C90.7123 68.1025 87.72 68.9338 86.0576 71.0954C84.2289 73.4232 84.7276 76.0835 84.8938 78.9102C85.0601 81.4043 85.2263 83.8984 85.3926 86.3925C85.725 91.3807 86.0575 96.3689 86.2238 101.357C86.7225 111.333 87.2212 121.31 87.5537 131.12C88.2187 151.073 88.5512 170.859 88.5512 190.812C88.5512 196.299 88.385 201.62 88.5512 207.107C88.5512 212.927 88.3849 218.746 90.0473 224.399C91.0448 227.725 95.3671 227.392 96.5308 224.399C98.1932 219.578 98.3595 214.589 98.5258 209.435C98.692 204.447 98.8583 199.458 98.8583 194.47C98.8583 184.328 98.8582 174.185 98.692 164.209Z" fill="#2C2E3E"/>
<path d="M122.632 181.612C122.466 161.659 121.801 141.873 120.804 121.92C120.471 116.267 120.305 110.78 119.973 105.126C119.806 102.3 119.64 99.473 119.474 96.8126C119.308 93.4872 119.474 90.1617 116.814 87.6676C114.653 85.506 111.66 86.3374 109.998 88.499C108.169 90.8268 108.668 93.4871 108.834 96.3137C109.001 98.8078 109.167 101.302 109.333 103.796C109.665 108.784 109.998 113.772 110.164 118.761C110.663 128.737 111.162 138.714 111.494 148.524C112.159 168.476 112.492 188.263 112.492 208.216C112.492 213.703 112.325 219.024 112.492 224.511C112.492 230.33 112.325 236.15 113.988 241.803C114.985 245.128 119.308 244.796 120.471 241.803C122.134 236.981 122.3 231.993 122.466 226.838C122.632 221.85 122.799 216.862 122.799 211.874C122.799 201.731 122.799 191.589 122.632 181.612Z" fill="#2C2E3E"/>
</g>
<defs>
<filter id="filter0_d_102_1407" x="0.273193" y="0" width="278.754" height="301.216" filterUnits="userSpaceOnUse" color-interpolation-filters="sRGB">
<feFlood flood-opacity="0" result="BackgroundImageFix"/>
<feColorMatrix in="SourceAlpha" type="matrix" values="0 0 0 0 0 0 0 0 0 0 0 0 0 0 0 0 0 0 127 0" result="hardAlpha"/>
<feOffset dy="4"/>
<feGaussianBlur stdDeviation="2"/>
<feComposite in2="hardAlpha" operator="out"/>
<feColorMatrix type="matrix" values="0 0 0 0 0 0 0 0 0 0 0 0 0 0 0 0 0 0 0.25 0"/>
<feBlend mode="normal" in2="BackgroundImageFix" result="effect1_dropShadow_102_1407"/>
<feBlend mode="normal" in="SourceGraphic" in2="effect1_dropShadow_102_1407" result="shape"/>
</filter>
</defs>
</svg>
