<svg width="261" height="268" viewBox="0 0 261 268" fill="none" xmlns="http://www.w3.org/2000/svg">
<g filter="url(#filter0_d_102_1341)">
<path d="M251.156 141.498C249.183 102.666 248.197 63.9494 253.412 24.6502C254.68 15.0878 241.995 5.05892 230.579 5.7586C193.793 8.32413 156.724 9.95677 119.656 8.55739C102.32 7.97432 84.8432 7.04135 67.789 4.35921C54.5403 2.26015 36.9224 -3.68717 24.5194 3.30972C7.4652 12.9888 2.81402 16.837 4.64628 35.3788C6.47855 54.0372 8.029 72.8121 9.29749 91.5871C12.5392 140.215 14.2305 188.844 11.1297 237.472C10.7069 245.052 18.4587 254.381 27.902 255.664C97.3871 265.343 162.221 255.314 232.552 258.58C264.687 260.096 255.103 217.648 254.398 202.721C253.552 182.08 252.284 161.789 251.156 141.498Z" fill="#EBB9B9"/>
<path d="M72.5248 117.624L60.2792 132.249L57.7203 151.078L43.0986 138.83L24.2732 136.453L36.5189 121.829L39.0776 103L53.5166 115.248L72.5248 117.624Z" fill="#2C2E3E"/>
<path d="M175.765 234.185L156.988 236.92L142.586 249.501L139.852 230.72L127.273 216.316L146.05 213.581L160.452 201L163.186 219.78L175.765 234.185Z" fill="#2C2E3E"/>
<path d="M79.1458 198.161L73.2339 210.863L74.9857 224.878L62.2862 218.746L48.2732 220.717L54.4039 207.797L52.4333 194L65.1327 199.913L79.1458 198.161Z" fill="#2C2E3E"/>
<path d="M127.124 131.327L118.611 132.179L111.8 137.855L110.665 129.056L105.273 122.244L114.07 121.393L120.881 116L121.733 124.515L127.124 131.327Z" fill="#2C2E3E"/>
</g>
<defs>
<filter id="filter0_d_102_1341" x="0.273193" y="0" width="260" height="268" filterUnits="userSpaceOnUse" color-interpolation-filters="sRGB">
<feFlood flood-opacity="0" result="BackgroundImageFix"/>
<feColorMatrix in="SourceAlpha" type="matrix" values="0 0 0 0 0 0 0 0 0 0 0 0 0 0 0 0 0 0 127 0" result="hardAlpha"/>
<feOffset dy="4"/>
<feGaussianBlur stdDeviation="2"/>
<feComposite in2="hardAlpha" operator="out"/>
<feColorMatrix type="matrix" values="0 0 0 0 0 0 0 0 0 0 0 0 0 0 0 0 0 0 0.25 0"/>
<feBlend mode="normal" in2="BackgroundImageFix" result="effect1_dropShadow_102_1341"/>
<feBlend mode="normal" in="SourceGraphic" in2="effect1_dropShadow_102_1341" result="shape"/>
</filter>
</defs>
</svg>
