<svg width="266" height="292" viewBox="0 0 266 292" fill="none" xmlns="http://www.w3.org/2000/svg">
<g filter="url(#filter0_d_102_1408)">
<path d="M258.697 91.3497C258.133 85.1466 257.428 78.8025 256.723 72.5994C254.891 56.9506 253.904 39.1871 244.883 25.653C238.54 16.2073 229.66 10.4272 218.948 7.0437C177.789 -5.78547 133.953 2.39135 91.8075 4.64702C78.276 5.35192 64.8853 6.19779 51.3538 6.47975C36.8355 6.90269 32.3251 8.31247 20.0621 14.6566C10.7592 19.4499 4.13445 28.7546 4.2754 40.174C4.69826 76.6878 5.26204 113.061 5.82586 149.574C6.10776 167.479 6.38964 185.242 6.67154 203.147C6.95345 217.95 4.55727 233.88 9.34969 248.119C13.1554 259.398 22.0354 268.561 33.5936 271.522C41.3461 273.496 49.9443 273.919 57.9787 274.906C104.211 280.827 150.726 280.122 197.241 280.545C213.732 280.686 231.07 288.299 245.165 277.302C252.917 271.381 256.3 263.486 256.864 253.9C259.683 214.143 261.939 174.246 260.952 134.349C260.811 119.969 259.965 105.589 258.697 91.3497Z" fill="#E6DFB8"/>
<path d="M113.091 93.5574C112.95 92.9935 112.668 92.5706 112.527 92.0067C112.386 91.8657 112.386 91.5837 112.245 91.4427C111.54 90.4559 110.977 89.892 109.99 89.1871C109.426 88.7641 108.58 88.4822 107.876 88.2002C107.735 88.2002 107.453 88.0592 107.312 88.0592C106.748 87.9183 106.184 87.9182 105.62 87.9182C105.479 87.9182 105.197 87.9182 105.056 87.9182C104.493 87.9182 103.929 88.0592 103.365 88.2002C102.66 88.3412 101.955 88.6231 101.392 89.046C101.11 89.328 100.828 89.469 100.546 89.7509C100.123 90.1739 99.8411 90.5968 99.7001 91.1607C99.5592 91.4427 99.4183 91.8657 99.4183 92.2887C99.2773 92.8526 99.2773 93.4164 99.5592 93.9804C99.7002 94.5443 99.8411 94.9672 100.123 95.3902L100.264 95.5312C100.264 96.0951 100.405 96.5181 100.546 96.941C100.687 97.223 100.687 97.3639 100.828 97.5049C100.969 98.4917 101.533 99.3377 102.237 100.043C102.942 100.747 103.929 101.452 104.915 101.593C106.043 101.875 107.03 101.875 108.157 101.593C108.721 101.452 109.144 101.17 109.567 101.029C109.708 100.888 109.99 100.888 110.131 100.747C110.554 100.466 110.977 100.184 111.399 99.7606C111.822 99.3377 112.104 98.9147 112.386 98.4918C112.809 97.9278 113.091 97.223 113.373 96.5181C113.373 95.6722 113.373 94.8263 113.091 93.5574Z" fill="#2C2E3E"/>
<path d="M134.516 120.203C134.375 119.78 134.234 119.357 133.952 118.934C133.952 118.793 133.952 118.793 133.952 118.652C133.811 118.088 133.529 117.524 133.388 117.101C133.106 116.537 132.683 116.114 132.401 115.691C131.556 114.704 130.287 114.141 129.019 113.718C126.904 113.013 124.508 113.436 122.394 113.859C121.548 114.141 120.843 114.422 120.279 115.127C119.857 115.55 119.434 116.114 119.293 116.678C119.011 117.242 118.87 117.806 118.87 118.511C118.87 119.357 119.152 120.203 119.575 120.908C119.716 121.049 119.716 121.19 119.857 121.471C120.139 121.894 120.561 122.458 120.984 122.881C121.407 123.304 121.83 123.586 122.394 124.009C122.535 124.15 122.676 124.15 122.817 124.291C122.817 124.291 122.958 124.291 122.958 124.432C123.521 125.419 124.226 126.124 125.072 126.688C125.495 126.97 125.918 127.111 126.34 127.252C126.622 127.393 126.904 127.393 127.186 127.393C128.032 127.534 128.596 127.534 129.441 127.252C130.851 126.829 131.978 125.842 132.824 124.714C132.965 124.573 133.106 124.291 133.106 124.15C134.375 122.881 134.797 121.472 134.516 120.203Z" fill="#2C2E3E"/>
<path d="M100.405 125.983C100.546 124.714 99.982 123.304 99.1363 122.317C99.1363 122.317 99.1363 122.317 98.9954 122.176C98.8544 122.035 98.5725 121.753 98.2906 121.612C97.8678 121.048 97.4449 120.485 96.8811 120.203C96.7401 120.062 96.5991 120.062 96.3172 119.921C96.1763 119.78 96.0354 119.639 95.8945 119.498C94.6259 118.652 92.7933 118.652 91.5248 119.498C90.5381 120.203 89.6924 121.048 89.4105 122.317C89.1285 123.163 89.2696 124.15 89.5515 124.996C89.5515 125.137 89.5515 125.278 89.5515 125.419C89.5515 126.688 90.2562 128.097 91.5248 128.802C92.0886 129.084 92.6525 129.366 93.2163 129.507C93.7801 129.648 94.3439 129.648 94.9077 129.789C94.9077 129.789 94.9077 129.789 95.0486 129.789C95.1896 129.789 95.1897 129.93 95.3306 129.93C95.7535 130.071 96.1764 130.212 96.5992 130.212C97.1631 130.212 97.8678 130.071 98.2906 129.789C98.5725 129.648 98.8544 129.507 98.9954 129.225C99.5592 129.084 100.123 128.52 100.264 127.957C100.264 127.816 100.264 127.675 100.264 127.534C100.264 127.111 100.405 126.547 100.405 125.983Z" fill="#2C2E3E"/>
<path d="M61.6426 91.8656C61.0788 91.3017 60.3741 90.7377 59.5283 90.4558C58.9645 90.1738 58.4006 89.8919 57.6959 89.7509C57.1321 89.6099 56.4274 89.469 55.7227 89.469C55.4408 89.469 55.1588 89.469 54.7359 89.469C54.0311 89.469 53.3263 89.6099 52.7625 89.7509C51.353 90.1738 50.0845 91.3017 49.6616 92.8525C49.5207 93.5574 49.5207 94.4033 49.6616 95.1082C49.8026 95.8131 50.2255 96.518 50.7893 97.0819C51.2122 97.6458 51.7759 98.2098 52.4807 98.6327C53.0445 99.0557 53.6084 99.4785 54.3131 99.9015C55.1589 100.324 56.0045 100.606 56.8502 100.747C57.414 100.888 57.8368 100.888 58.4006 100.888C58.5416 100.888 58.8235 100.888 58.9645 100.888C59.3874 100.888 59.8102 100.888 60.2331 100.747C60.3741 100.747 60.515 100.747 60.797 100.747C61.5017 100.747 62.0654 100.606 62.6292 100.183C63.7569 99.4786 64.4617 98.3507 64.4617 97.0819C64.7436 94.9672 63.3341 92.9934 61.6426 91.8656Z" fill="#2C2E3E"/>
<path d="M80.9532 57.4665C80.9532 57.3255 80.9532 57.3255 80.9532 57.4665C81.0942 56.9025 81.2352 56.4796 81.2352 55.9156C81.2352 55.3517 81.0943 54.7878 81.0943 54.3649C81.0943 54.2239 81.0942 54.2239 80.9532 54.0829C80.8123 53.66 80.6715 53.2371 80.3895 52.8141C79.8257 51.9683 79.121 51.2634 78.2753 50.6994C77.8524 50.4175 77.2886 50.2765 76.8657 50.1355C76.7248 50.1355 76.5838 49.9945 76.4428 49.9945C76.0199 49.8536 75.4562 49.8535 74.8924 49.8535C74.3285 49.8535 73.7648 49.9945 73.3419 49.9945C72.6371 50.1355 72.0733 50.4175 71.5095 50.6994C70.9456 50.9814 70.3819 51.4043 69.959 51.9682C69.2542 52.8141 68.6904 53.66 68.5495 54.6469C68.4085 55.9157 68.2676 56.1976 68.5495 57.4665C68.6904 58.0304 68.8314 58.4533 69.1133 59.0172L69.2542 59.1582C69.5361 59.5812 69.818 59.8631 70.0999 60.145C70.5228 60.568 70.9457 60.8499 71.3685 61.1319H71.5095C71.7914 61.4139 72.0732 61.6958 72.3551 61.8368C72.778 61.9778 73.06 62.2597 73.4828 62.2597C73.9057 62.2597 74.3286 62.4008 74.7514 62.4008C75.3152 62.4008 75.879 62.2598 76.3019 62.1188C77.2886 61.8368 78.1343 61.2729 78.98 60.709C78.98 60.709 78.98 60.709 79.1209 60.568C79.5438 60.1451 79.8256 59.8631 80.2485 59.1582C80.6713 58.7353 80.8123 58.0304 80.9532 57.4665Z" fill="#2C2E3E"/>
<path d="M54.0311 63.1057C53.8902 62.8238 53.4673 62.4008 53.3264 62.2598C53.0445 61.9778 52.6217 61.6959 52.3398 61.4139C51.9169 61.132 51.3531 60.991 50.7893 60.991C50.6483 60.991 50.3664 60.85 50.2254 60.85C49.9435 60.85 49.8026 60.85 49.5207 60.991C48.8159 61.132 48.5339 61.1319 47.8291 61.5549C47.6882 61.6959 47.4064 61.8369 47.2654 61.9779C46.9835 61.9779 46.8426 61.8369 46.5607 61.8369C45.433 61.8369 44.1643 62.5418 43.6005 63.5286C43.3186 64.0926 43.1777 64.6565 43.1777 65.2204C43.1777 65.7844 43.3186 66.3483 43.6005 66.9122C43.8824 67.1942 44.0234 67.6171 44.3053 67.899C44.5872 68.181 45.0101 68.463 45.292 68.745C45.7149 69.0269 46.2787 69.3089 46.8425 69.4499L46.9834 69.5908C47.1244 69.7318 47.2654 69.8728 47.5473 70.0137C47.8292 70.1547 48.111 70.2957 48.5339 70.2957C48.8158 70.2957 48.9568 70.2957 49.2387 70.2957C49.5206 70.2957 49.9435 70.1547 50.2254 70.0137C50.3664 69.8728 50.5072 69.7318 50.6482 69.5908C50.7892 69.5908 50.9302 69.5908 50.9302 69.5908C51.3531 69.4498 51.776 69.3089 52.1988 69.0269C52.9036 68.745 53.6083 68.0401 53.8902 67.3352C54.8769 66.0663 54.7359 64.3746 54.0311 63.1057Z" fill="#2C2E3E"/>
<path d="M85.041 91.1607C84.9001 90.4558 84.6182 89.7509 84.1953 89.046C84.1953 88.7641 84.1953 88.4821 84.1953 88.2002C84.1953 88.0592 84.1953 87.7772 84.3362 87.6362C84.3362 87.0723 84.1954 86.3675 83.9135 85.9445C83.7725 85.5216 83.6315 85.2396 83.3496 84.9576C83.0677 84.5347 82.6448 84.1118 82.081 83.8298C81.5172 83.2659 80.9533 82.702 80.2485 82.138C79.6847 81.8561 79.121 81.5741 78.5572 81.2921C78.2753 81.1511 77.9934 81.1512 77.7115 81.0102C77.1477 80.8692 76.4428 80.7282 75.879 80.8692C75.1742 80.8692 74.6105 81.1512 74.0467 81.4331C73.7648 81.7151 73.3418 81.9971 73.0599 82.138C72.6371 82.561 72.2143 83.1249 72.0733 83.6888C71.9324 83.9707 71.7913 84.3937 71.7913 84.6757C71.5094 84.9576 71.3684 85.2396 71.0865 85.5215C70.8046 85.8035 70.6638 86.0855 70.5229 86.3675C70.1 87.3543 69.818 88.3412 69.677 89.469C69.677 90.5969 69.959 91.5837 70.5229 92.7116C70.6638 92.8526 70.6637 93.1345 70.8047 93.2754C71.0866 93.6984 71.5094 94.2623 71.7913 94.5443C72.637 95.3902 73.4828 95.8131 74.6104 96.2361C75.1742 96.3771 75.7381 96.5181 76.3019 96.5181C76.8658 96.5181 77.5704 96.377 78.1342 96.377C78.4161 96.377 78.5571 96.2361 78.6981 96.2361C79.121 96.0951 79.6848 95.8131 80.1076 95.6721H80.2485C80.6714 95.9541 81.0943 95.9541 81.3762 95.9541C81.9401 95.9541 82.5038 95.6721 82.9267 95.3902C82.9267 95.3902 83.0676 95.3902 83.0676 95.2492C84.7591 94.5443 85.4639 92.8525 85.041 91.1607Z" fill="#2C2E3E"/>
<path d="M70.2409 124.573C70.0999 123.304 69.3952 122.317 68.5495 121.471C67.9857 120.766 67.14 120.062 66.2943 119.78C65.4486 119.357 64.6028 118.934 63.6161 118.793C62.4885 118.652 61.7837 118.511 60.6561 118.793C59.6694 118.934 58.9646 119.498 58.1189 120.062C56.9912 121.048 56.4275 122.599 56.4275 124.15C56.4275 125.278 56.7093 126.688 57.4141 127.675C57.9779 128.52 58.5417 129.084 59.5284 129.648C59.6694 129.789 59.9513 129.789 60.0923 129.93C60.2332 130.071 60.3741 130.212 60.515 130.353C61.5017 131.481 62.9113 132.045 64.3209 132.186C64.7437 132.327 65.1666 132.327 65.5895 132.327C66.2943 132.327 66.9989 132.186 67.5627 131.763C67.8446 131.622 68.1267 131.34 68.4086 131.058C68.5495 130.917 68.5495 130.917 68.6904 130.776C69.3952 130.071 69.8181 129.225 69.9591 128.238C69.9591 128.097 70.1 127.956 70.1 127.815C70.5228 126.829 70.5228 125.701 70.2409 124.573Z" fill="#2C2E3E"/>
<path d="M110.131 69.1679C109.99 68.745 109.849 68.3221 109.708 68.0401C109.708 67.8991 109.567 67.7581 109.567 67.7581C109.426 67.4762 109.144 67.1942 109.003 66.9123L108.862 66.7713C108.439 66.3483 108.016 66.0663 107.594 65.7844C106.889 65.3614 106.043 65.0795 105.197 65.2205C104.352 65.3615 103.506 65.5025 102.801 65.9254C102.66 66.0664 102.519 66.2074 102.237 66.3483C102.097 66.4893 101.815 66.6303 101.674 66.7713C101.392 67.0532 101.11 67.4762 100.828 67.7581C100.546 68.1811 100.264 68.745 100.123 69.3089C99.9823 70.1548 99.8413 71.1416 100.123 71.9875C100.264 72.2695 100.405 72.6924 100.546 72.9744C100.546 72.9744 100.546 72.9744 100.546 73.1153C100.687 73.3973 100.969 73.8203 101.251 74.1022C101.533 74.3842 101.956 74.6661 102.378 74.9481C102.801 75.089 103.083 75.3711 103.506 75.3711C104.493 75.5121 104.916 75.5121 105.902 75.3711C106.466 75.5121 107.03 75.5121 107.594 75.3711C107.875 75.2301 108.157 75.0891 108.439 75.0891C108.721 74.9481 108.862 74.8071 109.144 74.5251C109.144 74.5251 109.144 74.3842 109.285 74.3842C109.426 74.2432 109.708 73.8202 109.849 73.5383C109.99 73.2563 110.131 72.8334 110.272 72.5515C110.272 72.4105 110.413 72.2694 110.413 72.1285C110.554 71.5646 110.694 71.0007 110.554 70.4368C110.272 70.0138 110.272 69.5909 110.131 69.1679Z" fill="#2C2E3E"/>
<path d="M61.0787 39.1392C61.0787 38.1524 60.6558 37.0245 59.8101 36.1786C58.9644 35.3327 57.9777 34.6278 56.8501 34.0639C56.4273 33.782 55.8634 33.641 55.4406 33.5001C54.4539 32.5132 53.1853 31.6673 51.9167 31.3854C50.7891 31.1034 49.3796 31.2444 48.3929 31.8083C47.4062 32.5132 46.7014 33.3591 46.2786 34.4869C45.7148 36.1787 45.7148 38.1524 46.2786 39.8441C46.4195 41.113 47.1244 42.2407 47.9701 43.2276C48.393 43.6505 48.8158 44.0735 49.3797 44.3555C49.8025 44.6375 50.3663 44.9194 50.9301 45.0604H51.071C51.3529 45.2014 51.6348 45.3423 52.0577 45.3423C52.1986 45.3423 52.3396 45.4833 52.4806 45.4833C53.1854 45.6243 53.6081 45.6243 54.172 45.6243C54.7358 45.4833 55.2997 45.3424 55.7226 45.0604C56.1455 44.7784 56.5682 44.3555 56.8501 44.0735C57.8368 43.5096 58.8235 42.8047 59.6692 41.9588C60.6559 41.3949 61.0787 40.1261 61.0787 39.1392Z" fill="#2C2E3E"/>
<path d="M44.1646 108.783C44.0236 107.655 43.8827 106.95 43.3189 105.964C43.0369 105.541 42.7551 105.118 42.4732 104.836C42.3322 104.695 42.1912 104.554 42.0502 104.413C41.2045 103.708 40.4998 103.285 39.5131 102.862C39.3722 102.862 39.2311 102.721 39.0902 102.721C38.8083 102.721 38.5264 102.58 38.1036 102.58C38.1036 102.58 38.1034 102.58 37.9625 102.58C37.9625 102.58 37.9625 102.58 37.8216 102.58C37.3987 102.58 37.1169 102.439 36.694 102.439C36.2711 102.439 35.7073 102.58 35.2845 102.58C34.7206 102.721 34.2976 103.003 33.7338 103.144L32.8881 103.849C32.4652 104.272 32.1834 104.695 32.0424 105.259C31.9015 105.541 31.7606 105.964 31.7606 106.246C31.6196 106.81 31.6196 107.373 31.9015 107.937C32.0424 108.219 32.1833 108.501 32.3243 108.783C32.3243 109.065 32.4653 109.488 32.4653 109.77V109.911C32.6063 110.334 32.7471 110.757 33.029 111.039C33.029 111.18 33.1701 111.321 33.1701 111.321C33.452 111.603 33.593 112.026 33.8749 112.308L34.0158 112.449C34.7206 113.013 35.5663 113.577 36.412 113.859C36.8349 114 37.3987 114 37.8216 114C38.1035 114 38.6674 113.859 38.9493 113.859C38.9493 113.859 38.9492 113.859 39.0902 113.859C39.5131 113.718 40.2179 113.436 40.2179 113.436C40.2179 113.436 40.2179 113.436 40.3588 113.436C40.7817 113.295 41.3455 113.154 41.7684 112.872C42.4732 112.59 43.0369 111.885 43.4598 111.321C43.8826 110.616 43.8827 110.052 44.0236 109.347V109.206C44.1646 108.924 44.1646 108.924 44.1646 108.783Z" fill="#2C2E3E"/>
<path d="M103.083 40.5491C103.083 40.1261 102.801 39.7032 102.66 39.4212C102.66 39.2802 102.519 38.9982 102.519 38.8573C102.096 37.7294 101.391 36.7426 100.405 36.0377C99.9819 35.7557 99.559 35.6147 99.1362 35.4737C98.8543 35.3327 98.5724 35.3328 98.1496 35.3328C98.0086 35.3328 97.8677 35.1918 97.5857 35.1918C97.0219 35.0508 96.4582 35.0508 95.8944 35.0508C95.3306 35.0508 94.7667 35.1918 94.2029 35.1918C94.0619 35.1918 93.9211 35.1918 93.7801 35.3328C93.2163 35.4737 92.7933 35.7557 92.2295 36.0377C91.6657 36.3196 91.243 36.7426 90.9611 37.3065C90.5382 37.7295 90.2562 38.2933 90.1153 38.8573C90.1153 39.1392 90.1153 39.4212 89.9743 39.5622C89.8334 39.9851 89.6925 40.4081 89.6925 40.831C89.6925 41.254 89.8334 41.5359 89.8334 41.9589C89.9744 42.6638 90.3973 43.2277 90.9611 43.7916C91.5249 44.2145 92.2295 44.7785 92.9343 45.0604C93.4981 45.3424 94.062 45.4834 94.6258 45.7653C95.0487 46.0473 95.6124 46.3293 96.1762 46.4702C96.74 46.6112 97.4448 46.7521 98.1496 46.7521C98.5724 46.7521 99.1362 46.6112 99.5591 46.6112C99.982 46.4702 100.546 46.3292 100.969 46.0472C101.251 45.9063 101.532 45.6243 101.814 45.4834C102.237 45.2014 102.519 44.7784 102.66 44.2145C102.801 43.9325 102.942 43.6506 102.942 43.2276C102.942 43.0866 102.942 43.0867 103.083 42.9457C103.224 42.0999 103.224 41.254 103.083 40.5491Z" fill="#2C2E3E"/>
</g>
<defs>
<filter id="filter0_d_102_1408" x="0.273193" y="0" width="264.914" height="291.242" filterUnits="userSpaceOnUse" color-interpolation-filters="sRGB">
<feFlood flood-opacity="0" result="BackgroundImageFix"/>
<feColorMatrix in="SourceAlpha" type="matrix" values="0 0 0 0 0 0 0 0 0 0 0 0 0 0 0 0 0 0 127 0" result="hardAlpha"/>
<feOffset dy="4"/>
<feGaussianBlur stdDeviation="2"/>
<feComposite in2="hardAlpha" operator="out"/>
<feColorMatrix type="matrix" values="0 0 0 0 0 0 0 0 0 0 0 0 0 0 0 0 0 0 0.25 0"/>
<feBlend mode="normal" in2="BackgroundImageFix" result="effect1_dropShadow_102_1408"/>
<feBlend mode="normal" in="SourceGraphic" in2="effect1_dropShadow_102_1408" result="shape"/>
</filter>
</defs>
</svg>
